<?xml version="1.0" standalone="no"?>
<!DOCTYPE svg PUBLIC "-//W3C//DTD SVG 20010904//EN"
 "http://www.w3.org/TR/2001/REC-SVG-20010904/DTD/svg10.dtd">
<svg version="1.0" xmlns="http://www.w3.org/2000/svg"
 width="5000.000000pt" height="4000.000000pt" viewBox="0 0 5000.000000 4000.000000"
 preserveAspectRatio="xMidYMid meet">

<g transform="translate(0.000000,4000.000000) scale(0.100000,-0.100000)"
fill="#000000" stroke="none">
<path d="M24133 30872 c-8 -5 -9 -13 -3 -22 17 -26 11 -32 -24 -28 -19 2 -32
0 -30 -4 7 -11 56 -10 73 1 9 6 11 15 6 27 -5 11 -7 22 -7 27 2 9 0 9 -15 -1z"/>
<path d="M23954 30859 c-3 -6 -15 -9 -25 -6 -10 3 -17 0 -16 -5 1 -6 -4 -13
-10 -15 -7 -3 -13 2 -13 11 0 16 -52 15 -155 -3 -41 -7 -44 -9 -17 -10 18 0
31 -5 27 -10 -3 -6 -67 -8 -155 -5 -94 3 -151 0 -155 -6 -3 -5 -11 -10 -16
-10 -6 0 -7 5 -3 12 4 6 3 8 -3 5 -6 -4 -36 -8 -68 -11 -32 -3 -62 -11 -66
-18 -7 -10 -9 -10 -10 2 0 10 -3 8 -9 -5 -8 -18 -9 -18 -9 -2 -1 10 -5 15 -11
12 -9 -6 -24 -8 -130 -19 -86 -10 -160 -26 -160 -37 0 -5 -5 -9 -11 -9 -5 0
-7 5 -4 10 7 12 -28 14 -39 3 -4 -5 -20 -9 -34 -9 -25 -1 -48 -4 -147 -20 -22
-3 -51 -13 -64 -21 -14 -9 -20 -10 -16 -3 6 9 1 10 -16 4 -13 -4 -32 -7 -41
-6 -10 0 -18 -4 -18 -9 0 -6 -4 -7 -10 -4 -13 8 -81 -5 -75 -15 3 -5 -4 -6
-15 -3 -11 3 -28 2 -37 -2 -10 -4 -31 -9 -48 -11 -16 -1 -68 -12 -115 -24 -47
-12 -105 -25 -130 -30 -161 -30 -782 -209 -773 -223 3 -6 1 -7 -5 -3 -34 21
-1058 -364 -1035 -389 5 -4 3 -5 -4 -1 -6 3 -36 -4 -66 -18 -444 -196 -1046
-517 -1365 -728 -41 -26 -75 -48 -77 -48 -7 0 -293 -192 -420 -282 -992 -699
-1885 -1586 -2581 -2563 -264 -370 -452 -666 -669 -1055 -173 -310 -178 -331
-12 -54 546 912 1247 1749 2049 2446 141 123 183 157 365 304 534 428 1154
820 1818 1149 1019 505 2045 813 3230 970 66 9 140 18 165 20 262 26 410 37
545 41 88 3 167 7 175 10 20 8 750 7 757 0 4 -3 26 -6 50 -6 l43 0 0 40 0 40
-40 0 -40 0 0 40 0 40 -40 0 -40 0 0 40 0 40 -80 0 -80 0 0 40 0 40 -40 0 -40
0 0 40 0 40 -40 0 -40 0 0 40 0 40 -40 0 -40 0 0 40 0 40 -40 0 -40 0 0 40 c0
38 1 40 33 41 17 1 53 1 79 -1 64 -3 170 20 143 31 -19 7 -19 8 3 8 12 1 25
-5 28 -13 9 -23 41 -14 59 16 19 33 13 36 -13 8 -21 -22 -54 -18 -45 6 6 16
-3 19 -13 3z m-99 -19 c14 -6 2 -8 -40 -8 -52 1 -55 2 -25 8 46 10 42 10 65 0z
m-42 -27 c-7 -2 -21 -2 -30 0 -10 3 -4 5 12 5 17 0 24 -2 18 -5z m-270 -10
c-7 -2 -21 -2 -30 0 -10 3 -4 5 12 5 17 0 24 -2 18 -5z m-325 -40 c-10 -2 -18
-9 -18 -14 0 -5 -5 -9 -11 -9 -8 0 -8 5 1 15 7 8 20 14 29 14 13 -1 13 -2 -1
-6z m-170 -17 c-7 -8 -15 -12 -17 -11 -5 6 10 25 20 25 5 0 4 -6 -3 -14z m-48
-6 c0 -5 -5 -10 -11 -10 -5 0 -7 5 -4 10 3 6 8 10 11 10 2 0 4 -4 4 -10z m234
3 c-5 -5 -12 -12 -16 -18 -4 -6 -8 -2 -8 8 0 9 7 17 17 17 9 0 12 -3 7 -7z
m973 -509 c-3 -3 -12 -4 -19 -1 -8 3 -5 6 6 6 11 1 17 -2 13 -5z m-157 -14 c0
-5 -4 -10 -10 -10 -5 0 -10 5 -10 10 0 6 5 10 10 10 6 0 10 -4 10 -10z m135
-5 c6 -1 -8 -6 -30 -9 -22 -4 -47 -11 -56 -16 -17 -9 -29 -4 -29 11 0 5 8 5
18 2 14 -6 15 -4 4 9 -11 14 -7 15 35 11 27 -3 53 -6 58 -8z m54 -19 c-2 -2
-26 -6 -54 -10 -34 -4 -45 -3 -35 4 14 9 99 15 89 6z m-1332 -52 c-3 -3 -12
-4 -19 -1 -8 3 -5 6 6 6 11 1 17 -2 13 -5z"/>
<path d="M24075 30860 c4 -6 11 -8 16 -5 14 9 11 15 -7 15 -8 0 -12 -5 -9 -10z"/>
<path d="M24050 30850 c0 -5 5 -10 11 -10 5 0 7 5 4 10 -3 6 -8 10 -11 10 -2
0 -4 -4 -4 -10z"/>
<path d="M23586 30831 c-5 -8 84 -3 93 5 2 2 -16 4 -42 4 -25 0 -48 -4 -51 -9z"/>
<path d="M24597 30148 c2 -5 23 -8 45 -8 23 0 38 3 34 7 -9 9 -85 10 -79 1z"/>
<path d="M24723 30153 c9 -2 23 -2 30 0 6 3 -1 5 -18 5 -16 0 -22 -2 -12 -5z"/>
<path d="M24818 30150 c13 -6 31 -6 45 0 18 7 14 9 -23 9 -37 0 -41 -2 -22 -9z"/>
<path d="M24910 30140 c-35 -7 -35 -7 -5 -9 17 0 37 4 45 9 17 11 11 11 -40 0z"/>
<path d="M25117 30139 c7 -7 15 -10 18 -7 3 3 -2 9 -12 12 -14 6 -15 5 -6 -5z"/>
<path d="M25038 30133 c12 -2 30 -2 40 0 9 3 -1 5 -23 4 -22 0 -30 -2 -17 -4z"/>
<path d="M25128 30093 c7 -3 16 -2 19 1 4 3 -2 6 -13 5 -11 0 -14 -3 -6 -6z"/>
<path d="M25380 30070 c20 -13 33 -13 25 0 -3 6 -14 10 -23 10 -15 0 -15 -2
-2 -10z"/>
<path d="M25568 30073 c6 -2 18 -2 25 0 6 3 1 5 -13 5 -14 0 -19 -2 -12 -5z"/>
<path d="M25468 30063 c6 -2 18 -2 25 0 6 3 1 5 -13 5 -14 0 -19 -2 -12 -5z"/>
<path d="M25528 30043 c7 -3 16 -2 19 1 4 3 -2 6 -13 5 -11 0 -14 -3 -6 -6z"/>
<path d="M25715 30040 c3 -5 8 -10 11 -10 2 0 4 5 4 10 0 6 -5 10 -11 10 -5 0
-7 -4 -4 -10z"/>
<path d="M26175 29910 c3 -5 11 -10 16 -10 6 0 7 5 4 10 -3 6 -11 10 -16 10
-6 0 -7 -4 -4 -10z"/>
<path d="M26380 29890 c-9 -6 -10 -10 -3 -10 6 0 15 5 18 10 8 12 4 12 -15 0z"/>
<path d="M26310 29886 c0 -2 9 -6 20 -9 11 -3 18 -1 14 4 -5 9 -34 13 -34 5z"/>
<path d="M26380 29866 c0 -2 11 -6 25 -8 13 -3 22 -1 19 3 -5 9 -44 13 -44 5z"/>
<path d="M26890 29716 c0 -2 7 -7 16 -10 8 -3 12 -2 9 4 -6 10 -25 14 -25 6z"/>
<path d="M27410 29536 c0 -2 7 -7 16 -10 8 -3 12 -2 9 4 -6 10 -25 14 -25 6z"/>
<path d="M23545 29359 c-992 -38 -1971 -231 -2900 -571 -583 -213 -1227 -530
-1768 -870 -1179 -743 -2193 -1748 -2937 -2912 -1146 -1794 -1652 -3903 -1444
-6021 179 -1831 876 -3544 2029 -4985 221 -276 416 -492 699 -775 756 -755
1525 -1310 2476 -1784 1142 -569 2315 -883 3630 -973 238 -16 922 -16 1160 0
1351 92 2560 424 3735 1026 1163 595 2176 1417 3027 2458 171 208 578 765 456
623 -514 -596 -926 -994 -1453 -1402 -1258 -973 -2769 -1599 -4340 -1798 -665
-84 -1368 -96 -2005 -35 -178 17 -525 62 -532 69 -4 3 77 58 180 121 523 322
1131 748 1679 1176 l73 56 167 -41 c572 -138 1155 -221 1778 -252 283 -14 853
-6 1130 16 336 26 905 99 905 115 0 4 -48 7 -107 9 -192 3 -552 29 -793 57
-771 87 -1466 242 -2180 485 -266 90 -301 103 -298 110 2 3 71 65 153 139 458
408 1027 975 1389 1381 l58 66 117 -34 c582 -169 1198 -274 1836 -313 210 -13
889 -4 1100 14 190 17 476 48 472 52 -1 1 -92 10 -202 19 -915 75 -1809 285
-2640 620 -99 40 -201 83 -228 95 l-47 21 75 92 c493 598 1002 1322 1422 2022
90 151 323 560 323 569 0 2 16 33 36 68 60 106 277 543 359 723 110 242 238
551 222 535 -3 -3 -58 -92 -122 -199 -152 -253 -289 -464 -490 -755 -230 -333
-634 -840 -973 -1221 -264 -296 -787 -832 -986 -1010 -6 -5 -63 -58 -126 -116
-116 -107 -337 -302 -445 -394 -33 -27 -77 -66 -100 -85 -179 -156 -567 -464
-890 -706 -1177 -882 -2575 -1713 -4000 -2379 -421 -197 -971 -435 -1005 -435
-51 0 -607 272 -905 442 -655 374 -1254 822 -1795 1342 -145 139 -430 435
-430 446 0 4 19 10 43 14 91 14 783 190 1065 270 620 177 1321 417 1849 633 6
2 69 -51 140 -119 621 -594 1448 -1183 2170 -1546 l80 -41 289 166 c159 91
362 209 451 262 l161 96 -141 85 c-681 408 -1328 906 -1912 1472 -66 64 -118
118 -115 121 3 2 136 70 295 150 542 273 1085 584 1603 919 l123 80 97 -94
c539 -521 1349 -1084 2013 -1399 l56 -27 214 161 c118 88 260 198 317 245 93
76 101 85 85 96 -10 7 -58 37 -108 66 -422 251 -888 596 -1320 979 -134 119
-545 519 -545 531 0 4 62 54 138 111 718 541 1446 1192 2047 1829 181 193 284
307 508 566 155 178 441 546 588 754 17 25 -67 -52 -187 -171 -618 -611 -1184
-1073 -1936 -1582 -1567 -1062 -3541 -1937 -5688 -2522 -398 -108 -515 -138
-905 -230 -721 -170 -1658 -338 -2335 -419 -156 -19 -207 -22 -212 -13 -5 7
-49 84 -99 172 -281 494 -519 1028 -699 1566 -102 308 -227 760 -215 780 4 5
43 9 88 9 97 0 496 24 757 45 592 49 1197 127 1775 230 110 20 208 37 218 38
15 2 32 -33 91 -178 192 -472 420 -927 679 -1355 134 -220 287 -451 304 -457
14 -5 203 42 528 133 191 54 668 195 674 200 2 2 -28 47 -66 101 -220 308
-457 686 -653 1042 -138 251 -388 767 -376 778 2 2 75 24 162 48 683 187 1311
396 1937 646 109 43 200 79 202 79 2 0 17 -33 33 -72 146 -351 363 -771 580
-1123 145 -236 438 -658 452 -650 3 1 75 34 160 73 198 90 740 349 768 368 2
1 -45 68 -104 150 -360 498 -699 1089 -935 1632 l-18 42 242 121 c1280 641
2499 1459 3462 2323 94 85 391 376 365 359 -8 -6 -64 -46 -125 -90 -518 -375
-1176 -766 -1840 -1092 -212 -104 -240 -117 -460 -216 -1901 -851 -4174 -1385
-6645 -1559 -626 -45 -817 -51 -1657 -51 -452 0 -825 3 -829 7 -16 16 -24 488
-14 783 18 510 56 875 141 1345 25 137 98 484 115 540 3 14 75 15 596 15 716
0 946 8 1456 51 106 9 195 14 198 11 3 -3 1 -76 -4 -163 -10 -155 -8 -959 2
-1039 3 -22 10 -110 16 -195 20 -270 100 -888 120 -920 7 -11 385 20 800 66
278 30 282 31 276 52 -3 10 -26 100 -51 202 -150 608 -252 1309 -283 1945 -5
88 -7 161 -6 163 0 1 104 20 230 42 760 130 1419 290 2143 520 123 39 225 69
228 67 2 -3 -1 -87 -7 -188 -33 -588 13 -1302 121 -1884 22 -117 89 -439 93
-442 4 -4 416 104 646 169 118 33 232 65 253 70 21 6 37 17 37 25 0 8 -13 61
-29 117 -146 503 -255 1104 -306 1681 -16 194 -40 718 -32 737 2 7 22 19 43
27 36 13 329 135 399 166 847 379 1538 756 2214 1208 187 125 525 366 610 436
31 25 74 58 96 73 22 15 56 42 75 60 20 18 48 41 63 51 15 9 26 23 24 30 -1 6
4 11 11 9 12 -2 135 97 226 182 l31 28 -30 -18 c-16 -10 -100 -61 -185 -114
-307 -189 -587 -343 -920 -506 -1640 -802 -3628 -1282 -5850 -1414 -506 -29
-1446 -43 -1840 -26 -74 4 -193 8 -265 11 -153 6 -214 10 -515 31 -124 9 -226
17 -227 18 -5 5 45 122 131 306 363 778 878 1555 1461 2200 101 112 359 381
416 434 35 33 100 94 144 135 133 125 385 343 535 462 395 313 883 636 1305
864 133 72 515 262 609 302 555 239 965 381 1466 509 283 72 754 167 895 180
28 3 57 8 65 11 8 3 29 7 45 8 17 2 48 5 70 7 22 2 128 12 235 22 107 10 202
21 210 24 8 3 45 4 83 3 37 -1 67 1 67 6 0 8 51 10 444 12 126 0 227 3 225 5
-2 2 -44 7 -94 11 -49 4 -124 9 -165 12 -41 4 -111 8 -155 10 -44 2 -156 8
-250 12 -203 11 -412 11 -670 0z m875 -33 c0 -2 -7 -6 -15 -10 -8 -3 -15 -1
-15 4 0 6 7 10 15 10 8 0 15 -2 15 -4z"/>
<path d="M28450 29076 c0 -2 7 -7 16 -10 8 -3 12 -2 9 4 -6 10 -25 14 -25 6z"/>
<path d="M28915 28861 c-3 -5 0 -13 6 -17 7 -4 9 -3 5 4 -3 5 0 13 6 15 9 4
10 6 1 6 -6 1 -14 -3 -18 -8z"/>
<path d="M29663 28375 c0 -8 4 -12 9 -9 5 3 6 10 3 15 -9 13 -12 11 -12 -6z"/>
<path d="M29790 28266 c0 -2 8 -10 18 -17 15 -13 16 -12 3 4 -13 16 -21 21
-21 13z"/>
<path d="M23507 27798 c-150 -190 -207 -266 -207 -276 0 -5 -7 -15 -15 -22
-39 -32 -309 -440 -441 -665 -136 -233 -313 -572 -388 -745 -16 -36 -53 -121
-83 -190 -100 -228 -239 -616 -329 -915 -29 -99 -133 -509 -130 -512 5 -5 493
104 614 136 23 7 42 16 42 20 0 24 44 329 69 486 147 887 442 1780 859 2600
49 96 88 175 86 175 -2 0 -37 -42 -77 -92z"/>
<path d="M20098 27508 c-140 -189 -399 -574 -483 -720 -5 -9 -40 -68 -76 -130
-432 -735 -768 -1542 -979 -2353 -22 -88 -44 -169 -47 -179 -5 -19 2 -19 233
-12 132 3 285 9 340 13 l102 6 7 71 c11 117 71 519 105 701 86 474 222 995
381 1470 124 369 346 901 508 1223 17 34 29 62 27 62 -2 0 -55 -69 -118 -152z"/>
<path d="M31174 27106 c1 -8 5 -18 8 -22 4 -3 5 1 4 10 -1 8 -5 18 -8 22 -4 3
-5 -1 -4 -10z"/>
<path d="M31420 26796 c0 -2 8 -10 18 -17 15 -13 16 -12 3 4 -13 16 -21 21
-21 13z"/>
<path d="M32417 25501 c-10 -14 -10 -14 5 -3 13 10 17 10 20 0 3 -8 6 -7 10 3
8 21 -19 20 -35 0z"/>
<path d="M32580 25231 c0 -6 4 -13 10 -16 6 -3 7 1 4 9 -7 18 -14 21 -14 7z"/>
<path d="M32696 25032 c-3 -5 1 -9 9 -9 8 0 12 4 9 9 -3 4 -7 8 -9 8 -2 0 -6
-4 -9 -8z"/>
<path d="M32736 24962 c-2 -4 2 -16 10 -27 8 -10 14 -14 14 -8 0 7 -5 15 -10
18 -6 4 -8 11 -5 16 4 5 4 9 1 9 -3 0 -7 -3 -10 -8z"/>
<path d="M32833 24785 c0 -8 4 -12 9 -9 5 3 6 10 3 15 -9 13 -12 11 -12 -6z"/>
<path d="M32856 24753 c-6 -14 -5 -15 5 -6 7 7 10 15 7 18 -3 3 -9 -2 -12 -12z"/>
<path d="M32905 24650 c10 -11 20 -20 22 -20 2 0 -2 9 -9 20 -7 11 -17 20 -22
20 -5 0 -1 -9 9 -20z"/>
<path d="M32926 24597 c3 -10 9 -15 12 -12 3 3 0 11 -7 18 -10 9 -11 8 -5 -6z"/>
<path d="M32966 24533 c-6 -14 -5 -15 5 -6 7 7 10 15 7 18 -3 3 -9 -2 -12 -12z"/>
<path d="M32970 24506 c0 -2 7 -9 15 -16 13 -11 14 -10 9 4 -5 14 -24 23 -24
12z"/>
<path d="M33075 24309 c-4 -6 -5 -12 -2 -15 2 -3 7 2 10 11 7 17 1 20 -8 4z"/>
<path d="M33125 24180 c3 -5 8 -10 11 -10 2 0 4 5 4 10 0 6 -5 10 -11 10 -5 0
-7 -4 -4 -10z"/>
<path d="M33141 24155 c0 -5 6 -21 14 -35 8 -14 14 -20 14 -15 0 6 -6 21 -14
35 -8 14 -14 21 -14 15z"/>
<path d="M33237 23929 c4 -13 8 -18 11 -10 2 7 -1 18 -6 23 -8 8 -9 4 -5 -13z"/>
<path d="M33260 23910 c-8 -15 -8 -25 0 -38 8 -11 10 -12 7 -2 -2 8 0 25 4 38
11 27 3 29 -11 2z"/>
<path d="M33334 23829 c-4 -7 -3 -9 4 -5 5 3 13 0 15 -6 4 -9 6 -10 6 -1 1 17
-16 25 -25 12z"/>
<path d="M33316 23795 c4 -8 8 -15 10 -15 2 0 4 7 4 15 0 8 -4 15 -10 15 -5 0
-7 -7 -4 -15z"/>
<path d="M33302 23780 c7 -14 11 -32 9 -40 -2 -8 -1 -13 1 -10 2 3 10 13 18
23 7 10 9 17 2 15 -6 -2 -18 6 -27 17 -15 19 -16 19 -3 -5z"/>
<path d="M33340 23670 c0 -5 5 -10 11 -10 5 0 7 5 4 10 -3 6 -8 10 -11 10 -2
0 -4 -4 -4 -10z"/>
<path d="M33406 23513 c-6 -14 -5 -15 5 -6 7 7 10 15 7 18 -3 3 -9 -2 -12 -12z"/>
<path d="M33431 23504 c0 -11 3 -14 6 -6 3 7 2 16 -1 19 -3 4 -6 -2 -5 -13z"/>
<path d="M33417 23459 c4 -13 8 -18 11 -10 2 7 -1 18 -6 23 -8 8 -9 4 -5 -13z"/>
<path d="M33446 23431 c-15 -6 -16 -10 -7 -16 8 -4 16 -3 20 4 12 19 41 1 42
-28 2 -24 2 -24 6 -3 5 25 -12 52 -31 51 -6 0 -20 -4 -30 -8z"/>
<path d="M33440 23391 c0 -6 5 -13 10 -16 6 -4 8 -10 6 -14 -3 -4 1 -8 8 -8
10 0 10 6 2 24 -11 23 -26 31 -26 14z"/>
<path d="M33497 23328 c5 -34 -4 -36 -18 -5 -9 21 -9 21 -4 -3 4 -14 7 -31 7
-39 1 -10 5 -9 14 3 11 16 13 16 17 -1 2 -10 4 -1 3 19 0 20 -3 35 -7 32 -4
-2 -9 1 -12 8 -2 7 -2 1 0 -14z"/>
<path d="M33507 23243 c-4 -3 -7 -11 -7 -17 0 -6 5 -5 12 2 6 6 9 14 7 17 -3
3 -9 2 -12 -2z"/>
<path d="M33534 23125 c9 -30 12 -32 14 -15 2 13 -3 29 -11 37 -13 13 -13 10
-3 -22z"/>
<path d="M33555 23150 c3 -5 8 -10 11 -10 2 0 4 5 4 10 0 6 -5 10 -11 10 -5 0
-7 -4 -4 -10z"/>
<path d="M33580 23135 c0 -8 -4 -15 -9 -15 -12 0 -20 -49 -10 -56 5 -3 9 4 9
16 0 11 7 32 16 45 10 15 12 25 5 25 -6 0 -11 -7 -11 -15z"/>
<path d="M33570 23016 c0 -14 5 -28 11 -31 6 -4 8 -14 4 -24 -5 -12 -3 -13 5
-5 9 9 9 17 1 32 -6 11 -8 28 -5 36 3 9 1 16 -5 16 -6 0 -11 -11 -11 -24z"/>
<path d="M33610 22877 c0 -4 6 -23 14 -42 8 -18 12 -36 9 -38 -2 -3 7 -4 20
-3 25 1 27 16 2 16 -7 0 -16 7 -19 16 -9 24 -7 28 8 15 12 -10 13 -8 9 9 -6
24 -23 37 -23 18 0 -9 -3 -9 -10 2 -5 8 -10 11 -10 7z"/>
<path d="M33645 22770 c-4 -6 -4 -14 -1 -17 3 -4 6 0 7 8 0 8 5 3 11 -11 7
-16 12 -20 15 -12 7 19 -22 48 -32 32z"/>
<path d="M33656 22710 c3 -14 11 -32 16 -40 6 -10 7 -7 2 10 -3 14 -11 32 -16
40 -6 10 -7 7 -2 -10z"/>
<path d="M33686 22632 c-2 -4 0 -23 4 -42 9 -33 9 -33 7 -5 -1 17 2 36 6 43 5
6 4 12 -2 12 -5 0 -12 -3 -15 -8z"/>
<path d="M33745 22630 c3 -5 8 -10 11 -10 2 0 4 5 4 10 0 6 -5 10 -11 10 -5 0
-7 -4 -4 -10z"/>
<path d="M33710 22590 c0 -16 4 -30 10 -30 5 0 7 -7 3 -16 -5 -13 -7 -13 -14
-2 -6 9 -9 9 -9 1 0 -6 5 -15 10 -18 15 -10 49 36 49 65 0 23 -1 23 -9 5 -8
-19 -9 -19 -9 3 -1 35 -31 28 -31 -8z"/>
<path d="M33739 22529 c-8 -15 -8 -24 0 -32 7 -7 6 -14 -4 -21 -15 -12 -10
-44 33 -196 9 -30 16 -62 17 -70 0 -8 4 -21 8 -27 5 -7 5 -19 1 -25 -5 -8 -2
-8 10 1 16 13 16 12 5 -12 -12 -27 -6 -62 10 -53 10 6 25 -24 16 -32 -3 -3 -5
0 -5 6 0 7 -5 12 -10 12 -11 0 -4 -64 9 -85 3 -5 6 -17 6 -25 1 -8 5 -42 10
-75 8 -54 10 -57 17 -30 5 22 6 17 3 -21 -4 -51 7 -90 18 -63 4 10 6 9 6 -3 1
-9 -4 -18 -10 -20 -10 -3 2 -105 18 -148 3 -8 5 -25 4 -37 -1 -13 1 -28 5 -35
4 -7 9 -30 10 -53 1 -22 9 -93 18 -159 9 -65 19 -141 21 -170 3 -28 8 -67 12
-86 3 -19 7 -57 8 -85 2 -27 8 -113 14 -190 153 -1967 -265 -3932 -1201 -5647
-361 -662 -759 -1235 -1267 -1823 -254 -294 -678 -718 -999 -998 -730 -638
-1586 -1188 -2477 -1592 -1607 -729 -3367 -1022 -5150 -860 -1307 120 -2613
507 -3776 1121 -1091 576 -2062 1337 -2880 2259 -443 499 -817 1015 -1174
1618 -31 53 -60 97 -62 97 -7 0 95 -189 209 -388 1071 -1871 2711 -3409 4643
-4357 1208 -592 2474 -948 3805 -1069 366 -34 527 -40 1000 -40 572 0 864 17
1370 80 1984 248 3855 1040 5429 2299 867 693 1630 1524 2246 2445 367 548
631 1026 920 1665 223 494 471 1224 610 1800 153 629 264 1362 290 1915 3 69
8 142 11 163 3 29 1 37 -8 31 -11 -6 -11 -5 0 8 8 10 12 51 11 132 -1 64 1
119 5 123 8 9 8 428 -1 436 -3 4 -6 62 -6 130 1 79 -3 127 -10 136 -10 12 -9
13 2 7 10 -7 12 -2 8 20 -3 16 -9 96 -13 177 -5 131 -8 150 -27 167 -11 11
-24 17 -28 15 -9 -6 -23 34 -15 42 3 4 6 -1 6 -9 0 -15 39 -33 49 -23 2 3 -1
5 -7 5 -7 0 -12 5 -12 11 0 5 5 7 10 4 6 -3 10 -1 10 4 0 6 -6 11 -12 11 -10
0 -10 2 -1 8 16 10 5 52 -13 52 -21 0 -17 20 4 21 14 0 14 2 -3 9 -17 7 -17 9
-2 9 9 1 17 6 17 12 0 7 -10 9 -24 7 -17 -4 -23 -1 -19 9 3 7 9 10 14 7 5 -3
6 10 4 28 -4 24 -3 27 3 13 6 -14 9 -6 9 30 0 33 -3 43 -8 30 -8 -22 -11 -11
-11 40 1 20 -1 24 -5 10 -3 -11 -9 -24 -14 -30 -12 -12 -12 -38 0 -31 16 10
19 -19 8 -57 -11 -35 -14 -37 -54 -37 l-43 0 0 40 0 40 -40 0 -40 0 0 40 0 40
-40 0 -40 0 0 40 0 40 -80 0 -80 0 0 40 0 40 -40 0 -40 0 0 40 0 40 -40 0 -40
0 0 40 0 40 -40 0 -40 0 0 40 0 40 -80 0 -80 0 0 40 0 40 -40 0 -40 0 0 40 0
40 -40 0 -40 0 0 40 0 40 -40 0 -40 0 0 40 0 40 -40 0 -40 0 0 40 0 40 -80 0
-80 0 0 40 0 40 -40 0 -40 0 0 40 0 40 -40 0 -40 0 0 40 0 40 -40 0 -40 0 0
41 0 41 -42 -3 -43 -4 4 44 3 43 -45 -3 c-25 -2 -43 -1 -41 3 2 4 0 9 -6 13
-5 3 -10 16 -10 28 0 14 3 18 8 10 4 -6 7 13 7 43 0 30 -1 54 -2 54 -1 0 -7
-9 -14 -21z m78 -241 c-3 -8 -6 -5 -6 6 -1 11 2 17 5 13 3 -3 4 -12 1 -19z
m-17 -31 c0 -18 -2 -19 -10 -7 -13 20 -13 43 0 35 6 -3 10 -16 10 -28z m38
-21 c0 -18 -4 -39 -8 -46 -5 -7 -6 2 -5 21 2 19 4 40 4 47 2 27 9 10 9 -22z
m-31 -38 c-3 -7 -5 -2 -5 12 0 14 2 19 5 13 2 -7 2 -19 0 -25z m29 -63 c-6
-24 -26 -36 -26 -15 0 6 5 10 10 10 6 0 10 10 10 22 0 12 3 19 6 15 4 -3 4
-18 0 -32z m69 -295 c-3 -5 -12 -10 -18 -10 -7 0 -6 4 3 10 19 12 23 12 15 0z
m2 -62 c-3 -7 -5 -2 -5 12 0 14 2 19 5 13 2 -7 2 -19 0 -25z m0 -150 c-3 -7
-5 -2 -5 12 0 14 2 19 5 13 2 -7 2 -19 0 -25z m70 -255 c-3 -10 -5 -4 -5 12 0
17 2 24 5 18 2 -7 2 -21 0 -30z m1513 -428 c0 -2 -9 -9 -20 -15 -12 -6 -20 -7
-20 -1 0 5 8 12 18 14 9 3 18 5 20 6 1 0 2 -1 2 -4z m-23 -117 c-3 -8 -6 -5
-6 6 -1 11 2 17 5 13 3 -3 4 -12 1 -19z m43 -20 c0 -6 -7 -5 -15 2 -8 7 -15
17 -15 22 0 6 7 5 15 -2 8 -7 15 -17 15 -22z"/>
<path d="M33711 22494 c0 -11 3 -14 6 -6 3 7 2 16 -1 19 -3 4 -6 -2 -5 -13z"/>
<path d="M35243 22475 c-3 -9 -3 -18 -1 -21 3 -3 8 4 11 16 6 23 -1 27 -10 5z"/>
<path d="M35283 22332 c2 -12 6 -24 10 -28 3 -4 4 4 2 16 -6 30 -16 40 -12 12z"/>
<path d="M35281 22194 c0 -11 3 -14 6 -6 3 7 2 16 -1 19 -3 4 -6 -2 -5 -13z"/>
<path d="M35320 22099 c0 -5 5 -7 10 -4 6 3 10 8 10 11 0 2 -4 4 -10 4 -5 0
-10 -5 -10 -11z"/>
<path d="M35334 22079 c-3 -6 -2 -15 3 -20 5 -5 9 -1 9 11 0 23 -2 24 -12 9z"/>
<path d="M35311 22064 c0 -11 3 -14 6 -6 3 7 2 16 -1 19 -3 4 -6 -2 -5 -13z"/>
<path d="M35374 21806 c-3 -8 -4 -25 -1 -38 4 -20 4 -20 6 5 0 16 5 26 11 22
6 -3 10 -2 10 4 0 17 -20 23 -26 7z"/>
<path d="M35401 21702 c0 -26 -5 -41 -11 -37 -5 3 -10 2 -10 -4 0 -5 4 -13 10
-16 12 -8 23 35 17 71 -3 22 -4 18 -6 -14z"/>
<path d="M35366 21683 c-6 -14 -5 -15 5 -6 7 7 10 15 7 18 -3 3 -9 -2 -12 -12z"/>
<path d="M35403 21620 c-3 -11 -9 -17 -14 -14 -5 3 -6 -2 -2 -11 5 -14 8 -14
15 -3 7 9 8 3 4 -17 -3 -16 -3 -24 0 -17 5 10 9 10 22 0 13 -11 14 -10 4 9 -7
12 -9 30 -6 40 5 15 4 16 -6 3 -10 -13 -11 -11 -7 8 6 27 -3 30 -10 2z"/>
<path d="M35370 21569 c0 -13 5 -31 10 -39 7 -11 8 -5 4 20 -8 43 -14 51 -14
19z"/>
<path d="M35452 21339 c6 -16 12 -28 14 -26 5 5 -13 57 -20 57 -3 0 0 -14 6
-31z"/>
<path d="M35446 21284 c-9 -22 -7 -64 2 -64 4 0 7 18 7 40 0 45 0 47 -9 24z"/>
<path d="M35461 21260 c0 -8 4 -22 9 -30 12 -18 12 -2 0 25 -6 13 -9 15 -9 5z"/>
<path d="M14955 15050 c9 -16 18 -30 21 -30 2 0 -2 14 -11 30 -9 17 -18 30
-21 30 -2 0 2 -13 11 -30z"/>
</g>
</svg>
